<svg width="457" height="54" viewBox="0 0 457 54" fill="none" xmlns="http://www.w3.org/2000/svg">
<path d="M32.8741 0.608392V9.26224H25.4895L33.4196 28.6364H21.3671L16.8881 17.014L12.3462 28.6364H0L7.93007 9.26224H0.0629371V0.608392H32.8741ZM53.2762 31.2378V53.3916H3.38811V31.2378H53.2762ZM16.2273 45.042H40.4476V39.2937H16.2273V45.042ZM53.2762 0V29.2448H39.8392V19.6783H32.2133V10.7203H39.8392V0H53.2762ZM94.6259 42.1993V54H81.1888V42.1993H61.7517V32.2133H114.063V42.1993H94.6259ZM101.832 1.21678L112.605 27.4301H98.8636L92.1399 11.1399H83.5385L76.8776 27.4301H63.1364L73.8671 1.21678H101.843H101.832ZM172.427 26.8217H140.213V0.608392H172.427V26.8217ZM174.483 28.5734V32.7483H192.524V41.2238H183.441L193.007 53.3916H178.479L168.913 41.2238H166.731L157.164 53.3916H142.636L152.203 41.2238H142.636V32.7483H160.678V28.5734H174.483ZM152.14 8.47552V19.0699H160.794V8.47552H152.14ZM192.524 0V28.2168H179.087V0H192.524ZM251.434 0.608392V9.38811H243.808L251.979 31.0594H239.927L235.143 17.6224L230.297 31.0594H217.951L226.122 9.38811H218.014V0.608392H251.434ZM270.021 33.6608V41.3496C270.021 41.8322 269.916 42.9231 269.717 44.6224L268.689 53.4021H255.252L256.28 44.6224C256.364 43.8986 256.416 43.2692 256.458 42.7448H220.133V33.6608H270.021ZM270.021 10.5315H275.108V19.6154H270.021V31.6678H256.584V0H270.021V10.5315ZM306.472 0.608392L311.318 28.6364H298.972L295.647 9.26224H293.591L290.266 28.6364H277.92L282.766 0.608392H306.504H306.472ZM323.119 53.4021H290.549C287.727 53.4021 285.472 52.5839 283.794 50.9476C282.115 49.3112 281.276 47.0455 281.276 44.1399V40.5105C281.276 37.6049 282.115 35.3392 283.794 33.7028C285.472 32.0664 287.717 31.2483 290.549 31.2483H323.119C325.941 31.2483 328.196 32.0664 329.874 33.7028C331.552 35.3392 332.392 37.6049 332.392 40.5105V44.1399C332.392 47.0455 331.552 49.3112 329.874 50.9476C328.196 52.5839 325.951 53.4021 323.119 53.4021ZM317.549 39.2937H296.119C294.787 39.2937 294.126 39.965 294.126 41.2972V43.049C294.126 44.3811 294.787 45.042 296.119 45.042H317.549C318.881 45.042 319.542 44.3811 319.542 43.049V41.2972C319.542 39.965 318.881 39.2937 317.549 39.2937ZM331.773 0V29.2448H318.336V17.9266H310.101V8.96853H318.336V0H331.773ZM340.007 0.608392H371.612V8.84266H353.444V19.1329L372.818 18.042V26.1503L340.007 28.028V0.608392ZM391.112 53.4021H341.832V29.7273H354.671V33.0524H378.283V29.7273H391.122V53.4021H391.112ZM354.661 45.4091H378.273V40.9301H354.661V45.4091ZM391.112 0V9.14685H396.199V18.1678H391.112V28.0385H377.675V0H391.112ZM399.944 21.7343V11.7483C399.902 8.71678 400.93 6.15734 403.028 4.05944C405.126 1.96154 407.706 0.912587 410.78 0.912587H421.678C424.668 0.912587 427.196 1.98252 429.273 4.12238C431.35 6.26224 432.409 8.8007 432.451 11.7483V21.7343C432.409 24.6818 431.35 27.2203 429.273 29.3601C427.196 31.5 424.657 32.5699 421.678 32.5699H410.78C407.717 32.5699 405.126 31.521 403.028 29.4231C400.93 27.3252 399.902 24.7657 399.944 21.7343ZM402.367 53.4021V35.5385H415.804V44.3182H452.255V53.4021H402.367ZM411.871 21.6713C411.871 22.479 412.07 23.0874 412.479 23.486C412.878 23.8951 413.486 24.0944 414.294 24.0944H418.406C419.213 24.0944 419.822 23.8951 420.22 23.486C420.619 23.0874 420.829 22.479 420.829 21.6713V11.9266C420.829 11.1189 420.629 10.5105 420.22 10.1119C419.822 9.71329 419.213 9.5035 418.406 9.5035H414.294C413.486 9.5035 412.878 9.7028 412.479 10.1119C412.07 10.5105 411.871 11.1189 411.871 11.9266V21.6713ZM451.647 0V12.3566H456.734V21.6818H451.647V36.2098H438.21V0H451.647Z" fill="url(#paint0_linear_849_63)"/>
<defs>
<linearGradient id="paint0_linear_849_63" x1="228.367" y1="0" x2="228.367" y2="54" gradientUnits="userSpaceOnUse">
<stop stop-color="#9823C9"/>
<stop offset="1" stop-color="#7A15AF"/>
</linearGradient>
</defs>
</svg>
